STARTFONT 2.3
FONT -FontForge-Monoton-Book-R-Normal--8-80-72-72-P-54-ISO10646-1
SIZE 8 72 72  2
FONTBOUNDINGBOX 15 13 -1 -3
COMMENT "Generated by fontforge, http://fontforge.sourceforge.net"
COMMENT "Copyright (c) 2011 by vernon adams. All rights reserved."
STARTPROPERTIES 41
FOUNDRY "FontForge"
FAMILY_NAME "Monoton"
WEIGHT_NAME "Book"
SLANT "R"
SETWIDTH_NAME "Normal"
ADD_STYLE_NAME ""
PIXEL_SIZE 8
POINT_SIZE 80
RESOLUTION_X 72
RESOLUTION_Y 72
SPACING "P"
AVERAGE_WIDTH 54
CHARSET_REGISTRY "ISO10646"
CHARSET_ENCODING "1"
FONTNAME_REGISTRY ""
CHARSET_COLLECTIONS "ISO8859-2 ISO8859-9 ISO8859-4 ISO10646-1"
BITS_PER_PIXEL 2
FONT_NAME "Monoton-Regular"
FACE_NAME "Monoton"
COPYRIGHT "Copyright (c) 2011 by vernon adams. All rights reserved."
FONT_VERSION "1.000"
FONT_ASCENT 6
FONT_DESCENT 2
UNDERLINE_POSITION 0
UNDERLINE_THICKNESS 1
X_HEIGHT 5
CAP_HEIGHT 6
DEFAULT_CHAR 1
RAW_ASCENT 799
RAW_DESCENT 200
NORM_SPACE 1
RELATIVE_WEIGHT 40
RELATIVE_SETWIDTH 50
SUPERSCRIPT_X 0
SUPERSCRIPT_Y 2
SUPERSCRIPT_SIZE 4
SUBSCRIPT_X 0
SUBSCRIPT_Y 0
SUBSCRIPT_SIZE 4
AVG_LOWERCASE_WIDTH 58
AVG_UPPERCASE_WIDTH 63
ENDPROPERTIES
CHARS 372
STARTCHAR glyph1.dup1
ENCODING 0
SWIDTH 108 0
DWIDTH 1 0
BBX 1 1 0 0
BITMAP
00
ENDCHAR
STARTCHAR uni0002
ENCODING 2
SWIDTH 108 0
DWIDTH 1 0
BBX 1 1 0 0
BITMAP
00
ENDCHAR
STARTCHAR uni0009
ENCODING 9
SWIDTH 108 0
DWIDTH 1 0
BBX 1 1 0 0
BITMAP
00
ENDCHAR
STARTCHAR uni000A
ENCODING 10
SWIDTH 108 0
DWIDTH 1 0
BBX 1 1 0 0
BITMAP
00
ENDCHAR
STARTCHAR uni000D
ENCODING 13
SWIDTH 108 0
DWIDTH 1 0
BBX 1 1 0 0
BITMAP
00
ENDCHAR
STARTCHAR space
ENCODING 32
SWIDTH 108 0
DWIDTH 1 0
BBX 1 1 0 0
BITMAP
00
ENDCHAR
STARTCHAR exclam
ENCODING 33
SWIDTH 336 0
DWIDTH 3 0
BBX 3 8 0 -1
BITMAP
10
64
64
64
64
50
50
50
ENDCHAR
STARTCHAR quotedbl
ENCODING 34
SWIDTH 538 0
DWIDTH 4 0
BBX 4 3 0 4
BITMAP
51
56
56
ENDCHAR
STARTCHAR numbersign
ENCODING 35
SWIDTH 1014 0
DWIDTH 8 0
BBX 8 8 0 -1
BITMAP
0514
1659
29A5
0914
1560
5964
6594
1040
ENDCHAR
STARTCHAR dollar
ENCODING 36
SWIDTH 686 0
DWIDTH 5 0
BBX 5 8 0 0
BITMAP
0400
1540
6540
5900
6540
1640
1640
6540
ENDCHAR
STARTCHAR percent
ENCODING 37
SWIDTH 1504 0
DWIDTH 12 0
BBX 12 8 0 -1
BITMAP
150400
664500
559454
595965
192555
001565
006159
005010
ENDCHAR
STARTCHAR ampersand
ENCODING 38
SWIDTH 1029 0
DWIDTH 8 0
BBX 8 7 0 0
BITMAP
0514
5A68
5528
5AA9
5569
5A55
1A45
ENDCHAR
STARTCHAR quotesingle
ENCODING 39
SWIDTH 257 0
DWIDTH 2 0
BBX 2 3 0 4
BITMAP
50
50
50
ENDCHAR
STARTCHAR parenleft
ENCODING 40
SWIDTH 410 0
DWIDTH 3 0
BBX 3 8 0 -1
BITMAP
14
54
54
54
54
64
58
14
ENDCHAR
STARTCHAR parenright
ENCODING 41
SWIDTH 408 0
DWIDTH 3 0
BBX 3 8 0 -1
BITMAP
50
54
58
28
28
58
54
50
ENDCHAR
STARTCHAR asterisk
ENCODING 42
SWIDTH 664 0
DWIDTH 5 0
BBX 5 5 0 1
BITMAP
0500
5940
6940
5640
1900
ENDCHAR
STARTCHAR plus
ENCODING 43
SWIDTH 601 0
DWIDTH 5 0
BBX 5 4 0 1
BITMAP
1900
6A40
5900
0400
ENDCHAR
STARTCHAR comma
ENCODING 44
SWIDTH 252 0
DWIDTH 2 0
BBX 2 3 0 -1
BITMAP
10
50
50
ENDCHAR
STARTCHAR hyphen
ENCODING 45
SWIDTH 473 0
DWIDTH 4 0
BBX 4 2 0 2
BITMAP
69
54
ENDCHAR
STARTCHAR period
ENCODING 46
SWIDTH 255 0
DWIDTH 2 0
BBX 2 2 0 0
BITMAP
50
50
ENDCHAR
STARTCHAR slash
ENCODING 47
SWIDTH 447 0
DWIDTH 4 0
BBX 4 8 0 -1
BITMAP
04
15
18
14
24
54
60
50
ENDCHAR
STARTCHAR zero
ENCODING 48
SWIDTH 843 0
DWIDTH 7 0
BBX 7 8 0 -1
BITMAP
0540
29A0
6554
5464
5464
69A0
1990
0100
ENDCHAR
STARTCHAR one
ENCODING 49
SWIDTH 426 0
DWIDTH 3 0
BBX 3 7 0 0
BITMAP
54
68
28
28
28
28
28
ENDCHAR
STARTCHAR two
ENCODING 50
SWIDTH 583 0
DWIDTH 5 0
BBX 5 7 0 0
BITMAP
5500
5940
1640
0A00
1900
5900
6A00
ENDCHAR
STARTCHAR three
ENCODING 51
SWIDTH 612 0
DWIDTH 5 0
BBX 5 8 0 -1
BITMAP
5500
5A40
1640
1640
1940
5A40
5500
1400
ENDCHAR
STARTCHAR four
ENCODING 52
SWIDTH 622 0
DWIDTH 5 0
BBX 5 7 0 0
BITMAP
0500
1500
2500
5940
5540
6A40
0140
ENDCHAR
STARTCHAR five
ENCODING 53
SWIDTH 691 0
DWIDTH 6 0
BBX 6 8 0 -1
BITMAP
1540
6A40
6500
6540
5650
1650
6540
0400
ENDCHAR
STARTCHAR six
ENCODING 54
SWIDTH 781 0
DWIDTH 6 0
BBX 6 8 0 -1
BITMAP
1540
5940
5500
5550
59A0
69A0
1550
0100
ENDCHAR
STARTCHAR seven
ENCODING 55
SWIDTH 631 0
DWIDTH 5 0
BBX 5 7 0 0
BITMAP
5540
6A40
0640
0900
0600
1900
1900
ENDCHAR
STARTCHAR eight
ENCODING 56
SWIDTH 808 0
DWIDTH 6 0
BBX 7 8 0 -1
BITMAP
1540
6590
5994
65A0
65A0
6990
2550
0500
ENDCHAR
STARTCHAR nine
ENCODING 57
SWIDTH 782 0
DWIDTH 6 0
BBX 6 8 0 -1
BITMAP
1540
5550
5560
55A0
15A0
0550
2540
0500
ENDCHAR
STARTCHAR colon
ENCODING 58
SWIDTH 262 0
DWIDTH 2 0
BBX 2 4 0 1
BITMAP
50
50
50
50
ENDCHAR
STARTCHAR semicolon
ENCODING 59
SWIDTH 261 0
DWIDTH 2 0
BBX 2 5 0 0
BITMAP
50
50
50
50
50
ENDCHAR
STARTCHAR less
ENCODING 60
SWIDTH 670 0
DWIDTH 5 0
BBX 5 6 0 0
BITMAP
0580
5640
5900
5640
1580
0040
ENDCHAR
STARTCHAR equal
ENCODING 61
SWIDTH 473 0
DWIDTH 4 0
BBX 4 4 0 1
BITMAP
69
54
54
69
ENDCHAR
STARTCHAR greater
ENCODING 62
SWIDTH 670 0
DWIDTH 5 0
BBX 5 6 0 0
BITMAP
5400
6640
1980
6680
5900
5000
ENDCHAR
STARTCHAR question
ENCODING 63
SWIDTH 693 0
DWIDTH 6 0
BBX 6 7 0 0
BITMAP
1500
6640
0550
1A40
1940
1400
2400
ENDCHAR
STARTCHAR at
ENCODING 64
SWIDTH 1076 0
DWIDTH 9 0
BBX 9 8 0 -1
BITMAP
06A400
195900
669600
555540
656540
555600
168400
054000
ENDCHAR
STARTCHAR A
ENCODING 65
SWIDTH 936 0
DWIDTH 8 0
BBX 7 7 0 0
BITMAP
0540
0650
0990
1960
2554
5954
6564
ENDCHAR
STARTCHAR B
ENCODING 66
SWIDTH 862 0
DWIDTH 7 0
BBX 7 7 0 0
BITMAP
5540
6A90
5564
5A94
5564
5A94
5A90
ENDCHAR
STARTCHAR C
ENCODING 67
SWIDTH 852 0
DWIDTH 7 0
BBX 7 8 0 -1
BITMAP
0550
2994
6550
5400
6400
6990
1950
0140
ENDCHAR
STARTCHAR D
ENCODING 68
SWIDTH 886 0
DWIDTH 7 0
BBX 7 7 0 0
BITMAP
5540
6A60
5564
5458
5454
6A54
6A90
ENDCHAR
STARTCHAR E
ENCODING 69
SWIDTH 706 0
DWIDTH 6 0
BBX 6 7 0 0
BITMAP
5540
5A90
5400
5900
5500
5540
5A90
ENDCHAR
STARTCHAR F
ENCODING 70
SWIDTH 683 0
DWIDTH 5 0
BBX 5 7 0 0
BITMAP
5540
5A80
5400
5940
5940
5400
5400
ENDCHAR
STARTCHAR G
ENCODING 71
SWIDTH 908 0
DWIDTH 7 0
BBX 7 8 0 -1
BITMAP
0550
2994
6550
5414
5428
55A8
1968
0140
ENDCHAR
STARTCHAR H
ENCODING 72
SWIDTH 901 0
DWIDTH 7 0
BBX 7 7 0 0
BITMAP
5014
5418
5418
5A98
5558
5418
5418
ENDCHAR
STARTCHAR I
ENCODING 73
SWIDTH 338 0
DWIDTH 3 0
BBX 3 7 0 0
BITMAP
50
54
54
54
54
54
54
ENDCHAR
STARTCHAR J
ENCODING 74
SWIDTH 434 0
DWIDTH 3 0
BBX 3 8 0 -1
BITMAP
14
24
24
24
24
58
64
40
ENDCHAR
STARTCHAR K
ENCODING 75
SWIDTH 815 0
DWIDTH 7 0
BBX 6 7 0 0
BITMAP
5050
5550
5650
5980
5580
5590
54A0
ENDCHAR
STARTCHAR L
ENCODING 76
SWIDTH 604 0
DWIDTH 5 0
BBX 5 7 0 0
BITMAP
5000
5400
5400
5400
5400
5500
5A40
ENDCHAR
STARTCHAR M
ENCODING 77
SWIDTH 920 0
DWIDTH 7 0
BBX 7 7 0 0
BITMAP
5014
6428
6868
5958
5A58
5428
5428
ENDCHAR
STARTCHAR N
ENCODING 78
SWIDTH 877 0
DWIDTH 7 0
BBX 7 7 0 0
BITMAP
5414
6554
6554
5A94
5594
55A4
54A4
ENDCHAR
STARTCHAR O
ENCODING 79
SWIDTH 933 0
DWIDTH 7 0
BBX 8 8 0 -1
BITMAP
0550
29A4
6568
5415
6424
6994
1990
0140
ENDCHAR
STARTCHAR P
ENCODING 80
SWIDTH 850 0
DWIDTH 7 0
BBX 7 7 0 0
BITMAP
5540
6A50
5564
5564
5A60
5540
5400
ENDCHAR
STARTCHAR Q
ENCODING 81
SWIDTH 937 0
DWIDTH 8 0
BBX 8 8 0 -1
BITMAP
0550
29A4
6568
5415
6464
6994
19A4
0150
ENDCHAR
STARTCHAR R
ENCODING 82
SWIDTH 843 0
DWIDTH 7 0
BBX 7 7 0 0
BITMAP
5540
6A50
5564
5A94
5960
5590
54A0
ENDCHAR
STARTCHAR S
ENCODING 83
SWIDTH 682 0
DWIDTH 5 0
BBX 5 8 0 -1
BITMAP
1540
6540
5900
6540
1680
1640
6540
0400
ENDCHAR
STARTCHAR T
ENCODING 84
SWIDTH 591 0
DWIDTH 5 0
BBX 5 7 0 0
BITMAP
5500
6A40
1500
1500
1500
1500
1500
ENDCHAR
STARTCHAR U
ENCODING 85
SWIDTH 905 0
DWIDTH 7 0
BBX 7 8 0 -1
BITMAP
5014
5418
5418
5418
6458
69A4
1950
0100
ENDCHAR
STARTCHAR V
ENCODING 86
SWIDTH 940 0
DWIDTH 8 0
BBX 7 7 0 0
BITMAP
5014
6418
2864
1994
1660
0990
0680
ENDCHAR
STARTCHAR W
ENCODING 87
SWIDTH 1161 0
DWIDTH 9 0
BBX 9 7 0 0
BITMAP
505140
656580
566640
29A940
169A00
196600
1A2900
ENDCHAR
STARTCHAR X
ENCODING 88
SWIDTH 876 0
DWIDTH 7 0
BBX 7 7 0 0
BITMAP
5050
5950
1650
0580
0950
1560
5854
ENDCHAR
STARTCHAR Y
ENCODING 89
SWIDTH 789 0
DWIDTH 6 0
BBX 6 7 0 0
BITMAP
5050
6550
2550
1940
0940
0900
0900
ENDCHAR
STARTCHAR Z
ENCODING 90
SWIDTH 854 0
DWIDTH 7 0
BBX 7 7 0 0
BITMAP
5554
6A54
5554
0550
5540
65A4
6AA4
ENDCHAR
STARTCHAR bracketleft
ENCODING 91
SWIDTH 320 0
DWIDTH 3 0
BBX 3 8 0 -1
BITMAP
50
60
60
60
60
60
64
50
ENDCHAR
STARTCHAR backslash
ENCODING 92
SWIDTH 448 0
DWIDTH 4 0
BBX 4 8 0 -1
BITMAP
50
60
50
14
24
18
14
05
ENDCHAR
STARTCHAR bracketright
ENCODING 93
SWIDTH 319 0
DWIDTH 3 0
BBX 3 8 0 -1
BITMAP
50
54
54
54
54
54
54
50
ENDCHAR
STARTCHAR asciicircum
ENCODING 94
SWIDTH 475 0
DWIDTH 4 0
BBX 4 4 0 2
BITMAP
14
14
55
40
ENDCHAR
STARTCHAR underscore
ENCODING 95
SWIDTH 511 0
DWIDTH 4 0
BBX 4 2 0 -2
BITMAP
69
55
ENDCHAR
STARTCHAR grave
ENCODING 96
SWIDTH 472 0
DWIDTH 4 0
BBX 2 2 1 6
BITMAP
40
50
ENDCHAR
STARTCHAR a
ENCODING 97
SWIDTH 832 0
DWIDTH 7 0
BBX 7 6 0 0
BITMAP
1540
5590
5554
5454
5A54
1954
ENDCHAR
STARTCHAR b
ENCODING 98
SWIDTH 720 0
DWIDTH 6 0
BBX 6 6 0 0
BITMAP
5540
6650
5550
6A50
5550
5040
ENDCHAR
STARTCHAR c
ENCODING 99
SWIDTH 736 0
DWIDTH 6 0
BBX 6 7 0 -1
BITMAP
1640
5990
6400
5400
6940
1590
0100
ENDCHAR
STARTCHAR d
ENCODING 100
SWIDTH 833 0
DWIDTH 7 0
BBX 7 6 0 0
BITMAP
5540
6A90
5594
5454
6A50
6A50
ENDCHAR
STARTCHAR e
ENCODING 101
SWIDTH 666 0
DWIDTH 5 0
BBX 5 6 0 0
BITMAP
5540
5A80
5540
5A40
5540
5A80
ENDCHAR
STARTCHAR f
ENCODING 102
SWIDTH 625 0
DWIDTH 5 0
BBX 5 6 0 0
BITMAP
5540
5A40
5500
5A40
5400
5400
ENDCHAR
STARTCHAR g
ENCODING 103
SWIDTH 827 0
DWIDTH 7 0
BBX 7 7 0 -1
BITMAP
1640
5990
6400
5454
6994
1594
0100
ENDCHAR
STARTCHAR h
ENCODING 104
SWIDTH 830 0
DWIDTH 7 0
BBX 7 6 0 0
BITMAP
5454
5454
5994
5994
5454
5454
ENDCHAR
STARTCHAR i
ENCODING 105
SWIDTH 337 0
DWIDTH 3 0
BBX 3 6 0 0
BITMAP
54
54
54
54
54
54
ENDCHAR
STARTCHAR j
ENCODING 106
SWIDTH 393 0
DWIDTH 3 0
BBX 3 7 0 -1
BITMAP
14
58
58
58
54
64
50
ENDCHAR
STARTCHAR k
ENCODING 107
SWIDTH 801 0
DWIDTH 6 0
BBX 6 6 0 0
BITMAP
5450
5590
5180
5180
5550
5560
ENDCHAR
STARTCHAR l
ENCODING 108
SWIDTH 583 0
DWIDTH 5 0
BBX 5 6 0 0
BITMAP
5400
5400
5400
5400
5500
5A40
ENDCHAR
STARTCHAR m
ENCODING 109
SWIDTH 1167 0
DWIDTH 9 0
BBX 9 6 0 0
BITMAP
1A5900
65A540
555280
555280
555280
555280
ENDCHAR
STARTCHAR n
ENCODING 110
SWIDTH 787 0
DWIDTH 6 0
BBX 6 6 0 0
BITMAP
5450
6560
6660
5660
55A0
51A0
ENDCHAR
STARTCHAR o
ENCODING 111
SWIDTH 833 0
DWIDTH 7 0
BBX 7 7 0 -1
BITMAP
1640
5950
6454
5464
69A0
1590
0100
ENDCHAR
STARTCHAR p
ENCODING 112
SWIDTH 781 0
DWIDTH 6 0
BBX 6 6 0 0
BITMAP
5540
6A90
5A60
5590
5540
5400
ENDCHAR
STARTCHAR q
ENCODING 113
SWIDTH 788 0
DWIDTH 6 0
BBX 6 7 0 -1
BITMAP
1550
6AA0
65A0
55A0
59A0
05A0
0050
ENDCHAR
STARTCHAR r
ENCODING 114
SWIDTH 831 0
DWIDTH 7 0
BBX 7 6 0 0
BITMAP
5540
6A90
5A94
5990
5A90
5590
ENDCHAR
STARTCHAR s
ENCODING 115
SWIDTH 683 0
DWIDTH 5 0
BBX 5 6 0 0
BITMAP
1540
6540
5500
1A80
1540
6640
ENDCHAR
STARTCHAR t
ENCODING 116
SWIDTH 588 0
DWIDTH 5 0
BBX 5 6 0 0
BITMAP
5500
6A40
1500
1500
1500
1500
ENDCHAR
STARTCHAR u
ENCODING 117
SWIDTH 795 0
DWIDTH 6 0
BBX 6 7 0 -1
BITMAP
5450
54A0
54A0
54A0
6A50
1540
0100
ENDCHAR
STARTCHAR v
ENCODING 118
SWIDTH 855 0
DWIDTH 7 0
BBX 7 6 0 0
BITMAP
5454
5494
2560
1990
1680
0A40
ENDCHAR
STARTCHAR w
ENCODING 119
SWIDTH 1129 0
DWIDTH 9 0
BBX 9 6 0 0
BITMAP
555140
559540
559540
559540
6AAA40
16A600
ENDCHAR
STARTCHAR x
ENCODING 120
SWIDTH 790 0
DWIDTH 6 0
BBX 6 6 0 0
BITMAP
5550
1650
1A40
1540
2690
5590
ENDCHAR
STARTCHAR y
ENCODING 121
SWIDTH 733 0
DWIDTH 6 0
BBX 6 6 0 0
BITMAP
5150
5550
1540
1940
0A00
0A00
ENDCHAR
STARTCHAR z
ENCODING 122
SWIDTH 714 0
DWIDTH 6 0
BBX 6 6 0 0
BITMAP
5540
6940
0940
1500
5540
6690
ENDCHAR
STARTCHAR braceleft
ENCODING 123
SWIDTH 396 0
DWIDTH 3 0
BBX 3 9 0 -2
BITMAP
14
14
50
50
60
60
50
14
14
ENDCHAR
STARTCHAR bar
ENCODING 124
SWIDTH 266 0
DWIDTH 2 0
BBX 2 8 0 -1
BITMAP
10
60
60
60
60
60
60
50
ENDCHAR
STARTCHAR braceright
ENCODING 125
SWIDTH 396 0
DWIDTH 3 0
BBX 3 9 0 -2
BITMAP
50
54
24
24
18
24
24
54
50
ENDCHAR
STARTCHAR asciitilde
ENCODING 126
SWIDTH 665 0
DWIDTH 5 0
BBX 5 2 0 4
BITMAP
6940
5540
ENDCHAR
STARTCHAR uni00A0
ENCODING 160
SWIDTH 108 0
DWIDTH 1 0
BBX 1 1 0 0
BITMAP
00
ENDCHAR
STARTCHAR exclamdown
ENCODING 161
SWIDTH 336 0
DWIDTH 3 0
BBX 3 8 0 -1
BITMAP
10
64
64
64
64
50
50
50
ENDCHAR
STARTCHAR cent
ENCODING 162
SWIDTH 708 0
DWIDTH 6 0
BBX 5 7 0 -1
BITMAP
1940
6A40
5400
6540
1A40
0540
0500
ENDCHAR
STARTCHAR sterling
ENCODING 163
SWIDTH 689 0
DWIDTH 6 0
BBX 5 7 0 0
BITMAP
1540
6540
5500
5A40
5540
5500
5A40
ENDCHAR
STARTCHAR currency
ENCODING 164
SWIDTH 715 0
DWIDTH 6 0
BBX 5 6 0 0
BITMAP
5040
5A40
1080
1080
6640
5140
ENDCHAR
STARTCHAR yen
ENCODING 165
SWIDTH 796 0
DWIDTH 6 0
BBX 6 7 0 0
BITMAP
5050
5550
2550
1540
0940
2990
0940
ENDCHAR
STARTCHAR brokenbar
ENCODING 166
SWIDTH 263 0
DWIDTH 2 0
BBX 2 8 0 -1
BITMAP
50
50
50
50
00
50
50
50
ENDCHAR
STARTCHAR section
ENCODING 167
SWIDTH 108 0
DWIDTH 1 0
BBX 1 1 0 0
BITMAP
00
ENDCHAR
STARTCHAR dieresis
ENCODING 168
SWIDTH 556 0
DWIDTH 4 0
BBX 4 1 0 6
BITMAP
55
ENDCHAR
STARTCHAR copyright
ENCODING 169
SWIDTH 869 0
DWIDTH 7 0
BBX 7 7 0 0
BITMAP
0540
1550
5404
6004
5444
1550
0540
ENDCHAR
STARTCHAR ordfeminine
ENCODING 170
SWIDTH 833 0
DWIDTH 7 0
BBX 7 6 0 0
BITMAP
0540
1990
6554
5464
5A64
1964
ENDCHAR
STARTCHAR guillemotleft
ENCODING 171
SWIDTH 911 0
DWIDTH 7 0
BBX 7 4 0 1
BITMAP
0514
5994
5594
1518
ENDCHAR
STARTCHAR logicalnot
ENCODING 172
SWIDTH 718 0
DWIDTH 6 0
BBX 6 4 0 1
BITMAP
1500
5590
1590
0040
ENDCHAR
STARTCHAR registered
ENCODING 174
SWIDTH 869 0
DWIDTH 7 0
BBX 7 7 0 0
BITMAP
0540
1510
4884
4944
4444
1050
0540
ENDCHAR
STARTCHAR degree
ENCODING 176
SWIDTH 330 0
DWIDTH 3 0
BBX 3 3 0 6
BITMAP
10
54
50
ENDCHAR
STARTCHAR plusminus
ENCODING 177
SWIDTH 598 0
DWIDTH 5 0
BBX 5 5 0 0
BITMAP
1900
6A40
5900
1500
5500
ENDCHAR
STARTCHAR uni00B2
ENCODING 178
SWIDTH 435 0
DWIDTH 3 0
BBX 4 6 0 1
BITMAP
14
15
08
10
54
54
ENDCHAR
STARTCHAR uni00B3
ENCODING 179
SWIDTH 515 0
DWIDTH 4 0
BBX 4 6 0 1
BITMAP
54
69
19
15
16
69
ENDCHAR
STARTCHAR acute
ENCODING 180
SWIDTH 472 0
DWIDTH 4 0
BBX 3 2 0 6
BITMAP
04
64
ENDCHAR
STARTCHAR uni00B5
ENCODING 181
SWIDTH 802 0
DWIDTH 6 0
BBX 6 7 0 -1
BITMAP
5450
6490
6490
6490
6A50
6550
5500
ENDCHAR
STARTCHAR paragraph
ENCODING 182
SWIDTH 676 0
DWIDTH 5 0
BBX 5 7 0 -1
BITMAP
1540
6A80
6A80
6680
1680
0280
0280
ENDCHAR
STARTCHAR periodcentered
ENCODING 183
SWIDTH 260 0
DWIDTH 2 0
BBX 2 2 0 3
BITMAP
50
50
ENDCHAR
STARTCHAR cedilla
ENCODING 184
SWIDTH 321 0
DWIDTH 3 0
BBX 2 3 0 -3
BITMAP
10
50
60
ENDCHAR
STARTCHAR uni00B9
ENCODING 185
SWIDTH 359 0
DWIDTH 3 0
BBX 3 5 0 2
BITMAP
50
64
24
24
24
ENDCHAR
STARTCHAR ordmasculine
ENCODING 186
SWIDTH 835 0
DWIDTH 7 0
BBX 7 7 0 -1
BITMAP
1640
5950
6454
5464
6990
1990
0100
ENDCHAR
STARTCHAR guillemotright
ENCODING 187
SWIDTH 912 0
DWIDTH 7 0
BBX 7 4 0 1
BITMAP
5050
6998
5558
5490
ENDCHAR
STARTCHAR onequarter
ENCODING 188
SWIDTH 1236 0
DWIDTH 10 0
BBX 10 8 0 -1
BITMAP
501000
645000
249240
255640
258A50
014550
024050
014000
ENDCHAR
STARTCHAR onehalf
ENCODING 189
SWIDTH 1154 0
DWIDTH 9 0
BBX 9 8 0 -1
BITMAP
501000
645000
249680
255080
258140
014500
024A40
014000
ENDCHAR
STARTCHAR threequarters
ENCODING 190
SWIDTH 1345 0
DWIDTH 11 0
BBX 11 8 0 -1
BITMAP
540400
691800
192450
151580
166254
696154
009014
005000
ENDCHAR
STARTCHAR questiondown
ENCODING 191
SWIDTH 693 0
DWIDTH 6 0
BBX 6 7 0 0
BITMAP
1500
6640
0550
1A40
1940
1400
2400
ENDCHAR
STARTCHAR Agrave
ENCODING 192
SWIDTH 936 0
DWIDTH 8 0
BBX 7 9 0 0
BITMAP
0400
1500
0440
0650
0990
1960
2554
5954
6564
ENDCHAR
STARTCHAR Aacute
ENCODING 193
SWIDTH 936 0
DWIDTH 8 0
BBX 7 9 0 0
BITMAP
0010
0190
0540
0650
0990
1960
2554
5954
6564
ENDCHAR
STARTCHAR Acircumflex
ENCODING 194
SWIDTH 936 0
DWIDTH 8 0
BBX 7 9 0 0
BITMAP
0240
0540
0540
0650
0990
1960
2554
5954
6564
ENDCHAR
STARTCHAR Atilde
ENCODING 195
SWIDTH 936 0
DWIDTH 8 0
BBX 7 9 0 0
BITMAP
1A50
0550
0540
0650
0990
1960
2554
5954
6564
ENDCHAR
STARTCHAR Adieresis
ENCODING 196
SWIDTH 936 0
DWIDTH 8 0
BBX 7 8 0 0
BITMAP
0550
0540
0650
0990
1960
2554
5954
6564
ENDCHAR
STARTCHAR Aring
ENCODING 197
SWIDTH 936 0
DWIDTH 8 0
BBX 7 10 0 0
BITMAP
0100
0540
0140
0540
0650
0990
1960
2554
5954
6564
ENDCHAR
STARTCHAR AE
ENCODING 198
SWIDTH 1198 0
DWIDTH 10 0
BBX 9 7 0 0
BITMAP
055540
066A80
099000
196A40
255540
595940
656680
ENDCHAR
STARTCHAR Ccedilla
ENCODING 199
SWIDTH 852 0
DWIDTH 7 0
BBX 7 10 0 -3
BITMAP
0550
2994
6550
5400
6400
6990
1950
0240
0500
0600
ENDCHAR
STARTCHAR Egrave
ENCODING 200
SWIDTH 706 0
DWIDTH 6 0
BBX 6 9 0 0
BITMAP
1000
1400
5540
5A90
5400
5900
5500
5540
5A90
ENDCHAR
STARTCHAR Eacute
ENCODING 201
SWIDTH 706 0
DWIDTH 6 0
BBX 6 9 0 0
BITMAP
0040
0640
5540
5A90
5400
5900
5500
5540
5A90
ENDCHAR
STARTCHAR Ecircumflex
ENCODING 202
SWIDTH 706 0
DWIDTH 6 0
BBX 6 9 0 0
BITMAP
0500
0600
5540
5A90
5400
5900
5500
5540
5A90
ENDCHAR
STARTCHAR Edieresis
ENCODING 203
SWIDTH 706 0
DWIDTH 6 0
BBX 6 8 0 0
BITMAP
1540
5540
5A90
5400
5900
5500
5540
5A90
ENDCHAR
STARTCHAR Igrave
ENCODING 204
SWIDTH 338 0
DWIDTH 3 0
BBX 4 9 -1 0
BITMAP
40
64
00
15
15
15
15
15
15
ENDCHAR
STARTCHAR Iacute
ENCODING 205
SWIDTH 338 0
DWIDTH 3 0
BBX 4 9 0 0
BITMAP
05
15
50
54
54
54
54
54
54
ENDCHAR
STARTCHAR Icircumflex
ENCODING 206
SWIDTH 338 0
DWIDTH 3 0
BBX 3 9 0 0
BITMAP
60
54
50
54
54
54
54
54
54
ENDCHAR
STARTCHAR Idieresis
ENCODING 207
SWIDTH 338 0
DWIDTH 3 0
BBX 5 8 -1 0
BITMAP
5140
1500
1500
1500
1500
1500
1500
1500
ENDCHAR
STARTCHAR Eth
ENCODING 208
SWIDTH 905 0
DWIDTH 7 0
BBX 7 7 0 0
BITMAP
5540
6AA0
6564
6818
6458
6A54
6A90
ENDCHAR
STARTCHAR Ntilde
ENCODING 209
SWIDTH 877 0
DWIDTH 7 0
BBX 7 9 0 0
BITMAP
1A50
1150
5414
6554
6554
5A94
5594
55A4
54A4
ENDCHAR
STARTCHAR Ograve
ENCODING 210
SWIDTH 933 0
DWIDTH 7 0
BBX 8 10 0 -1
BITMAP
0400
1500
0550
29A4
6568
5415
6424
6994
1990
0140
ENDCHAR
STARTCHAR Oacute
ENCODING 211
SWIDTH 933 0
DWIDTH 7 0
BBX 8 10 0 -1
BITMAP
0010
0190
0650
29A4
6568
5415
6424
6994
1990
0140
ENDCHAR
STARTCHAR Ocircumflex
ENCODING 212
SWIDTH 933 0
DWIDTH 7 0
BBX 8 10 0 -1
BITMAP
0240
0540
0550
29A4
6568
5415
6424
6994
1990
0140
ENDCHAR
STARTCHAR Otilde
ENCODING 213
SWIDTH 933 0
DWIDTH 7 0
BBX 8 10 0 -1
BITMAP
1A50
1550
0550
29A4
6568
5415
6424
6994
1990
0140
ENDCHAR
STARTCHAR Odieresis
ENCODING 214
SWIDTH 933 0
DWIDTH 7 0
BBX 8 9 0 -1
BITMAP
0550
0550
29A4
6568
5415
6424
6994
1990
0140
ENDCHAR
STARTCHAR multiply
ENCODING 215
SWIDTH 790 0
DWIDTH 6 0
BBX 6 6 0 0
BITMAP
5550
1650
1A40
1540
2690
5590
ENDCHAR
STARTCHAR Oslash
ENCODING 216
SWIDTH 938 0
DWIDTH 8 0
BBX 8 9 0 -1
BITMAP
0010
0554
29A4
6558
5415
6424
6994
1990
1540
ENDCHAR
STARTCHAR Ugrave
ENCODING 217
SWIDTH 905 0
DWIDTH 7 0
BBX 7 10 0 -1
BITMAP
1000
1500
5014
5418
5418
5418
6458
69A4
1950
0100
ENDCHAR
STARTCHAR Uacute
ENCODING 218
SWIDTH 905 0
DWIDTH 7 0
BBX 7 10 0 -1
BITMAP
0010
0190
5014
5418
5418
5418
6458
69A4
1950
0100
ENDCHAR
STARTCHAR Ucircumflex
ENCODING 219
SWIDTH 905 0
DWIDTH 7 0
BBX 7 10 0 -1
BITMAP
0240
0540
5014
5418
5418
5418
6458
69A4
1950
0100
ENDCHAR
STARTCHAR Udieresis
ENCODING 220
SWIDTH 905 0
DWIDTH 7 0
BBX 7 9 0 -1
BITMAP
1450
5414
5418
5418
5418
6458
69A4
1950
0100
ENDCHAR
STARTCHAR Yacute
ENCODING 221
SWIDTH 789 0
DWIDTH 6 0
BBX 6 9 0 0
BITMAP
0040
0140
5050
6550
2550
1940
0940
0900
0900
ENDCHAR
STARTCHAR Thorn
ENCODING 222
SWIDTH 798 0
DWIDTH 6 0
BBX 6 8 0 -1
BITMAP
5400
6A40
6A50
64A0
65A0
6A50
6540
5000
ENDCHAR
STARTCHAR germandbls
ENCODING 223
SWIDTH 826 0
DWIDTH 7 0
BBX 7 8 0 -1
BITMAP
1540
6590
5594
59A0
5554
5A64
5A90
5000
ENDCHAR
STARTCHAR agrave
ENCODING 224
SWIDTH 832 0
DWIDTH 7 0
BBX 7 9 0 0
BITMAP
1000
1900
0000
1540
5590
5554
5454
5A54
1954
ENDCHAR
STARTCHAR aacute
ENCODING 225
SWIDTH 832 0
DWIDTH 7 0
BBX 7 9 0 0
BITMAP
0040
0150
0000
1540
5590
5554
5454
5A54
1954
ENDCHAR
STARTCHAR acircumflex
ENCODING 226
SWIDTH 832 0
DWIDTH 7 0
BBX 7 8 0 0
BITMAP
0600
0540
1540
5590
5554
5454
5A54
1954
ENDCHAR
STARTCHAR atilde
ENCODING 227
SWIDTH 832 0
DWIDTH 7 0
BBX 7 8 0 0
BITMAP
1A50
1540
1540
5590
5554
5454
5A54
1954
ENDCHAR
STARTCHAR adieresis
ENCODING 228
SWIDTH 832 0
DWIDTH 7 0
BBX 7 7 0 0
BITMAP
1540
1540
5590
5554
5454
5A54
1954
ENDCHAR
STARTCHAR aring
ENCODING 229
SWIDTH 832 0
DWIDTH 7 0
BBX 7 9 0 0
BITMAP
0100
0540
0500
1540
5590
5554
5454
5A54
1954
ENDCHAR
STARTCHAR ae
ENCODING 230
SWIDTH 1166 0
DWIDTH 9 0
BBX 9 6 0 0
BITMAP
155540
55AA80
555940
545A40
5A5540
195A80
ENDCHAR
STARTCHAR ccedilla
ENCODING 231
SWIDTH 736 0
DWIDTH 6 0
BBX 6 9 0 -3
BITMAP
1640
5990
6400
5400
6940
1590
0600
0900
0900
ENDCHAR
STARTCHAR egrave
ENCODING 232
SWIDTH 666 0
DWIDTH 5 0
BBX 5 9 0 0
BITMAP
1000
5400
0000
5540
5A80
5540
5A40
5540
5A80
ENDCHAR
STARTCHAR eacute
ENCODING 233
SWIDTH 666 0
DWIDTH 5 0
BBX 5 9 0 0
BITMAP
0040
0640
0000
5540
5A80
5540
5A40
5540
5A80
ENDCHAR
STARTCHAR ecircumflex
ENCODING 234
SWIDTH 666 0
DWIDTH 5 0
BBX 5 8 0 0
BITMAP
0900
1500
5540
5A80
5540
5A40
5540
5A80
ENDCHAR
STARTCHAR edieresis
ENCODING 235
SWIDTH 666 0
DWIDTH 5 0
BBX 5 7 0 0
BITMAP
1140
5540
5A80
5540
5A40
5540
5A80
ENDCHAR
STARTCHAR igrave
ENCODING 236
SWIDTH 337 0
DWIDTH 3 0
BBX 4 9 -1 0
BITMAP
40
64
00
15
15
15
15
15
15
ENDCHAR
STARTCHAR iacute
ENCODING 237
SWIDTH 337 0
DWIDTH 3 0
BBX 4 9 0 0
BITMAP
05
15
00
54
54
54
54
54
54
ENDCHAR
STARTCHAR icircumflex
ENCODING 238
SWIDTH 337 0
DWIDTH 3 0
BBX 3 8 0 0
BITMAP
60
54
54
54
54
54
54
54
ENDCHAR
STARTCHAR idieresis
ENCODING 239
SWIDTH 337 0
DWIDTH 3 0
BBX 5 7 -1 0
BITMAP
5140
1500
1500
1500
1500
1500
1500
ENDCHAR
STARTCHAR eth
ENCODING 240
SWIDTH 783 0
DWIDTH 6 0
BBX 6 8 0 -1
BITMAP
1540
1590
0560
19A0
59A0
5950
1540
0500
ENDCHAR
STARTCHAR ntilde
ENCODING 241
SWIDTH 787 0
DWIDTH 6 0
BBX 6 8 0 0
BITMAP
1A50
1540
5450
6560
6660
5660
55A0
51A0
ENDCHAR
STARTCHAR ograve
ENCODING 242
SWIDTH 833 0
DWIDTH 7 0
BBX 7 10 0 -1
BITMAP
1000
1900
0000
1640
5950
6454
5464
69A0
1590
0100
ENDCHAR
STARTCHAR oacute
ENCODING 243
SWIDTH 833 0
DWIDTH 7 0
BBX 7 10 0 -1
BITMAP
0040
0150
0000
1640
5950
6454
5464
69A0
1590
0100
ENDCHAR
STARTCHAR ocircumflex
ENCODING 244
SWIDTH 833 0
DWIDTH 7 0
BBX 7 9 0 -1
BITMAP
0600
0540
1640
5950
6454
5464
69A0
1590
0100
ENDCHAR
STARTCHAR otilde
ENCODING 245
SWIDTH 833 0
DWIDTH 7 0
BBX 7 9 0 -1
BITMAP
1A50
1540
1640
5950
6454
5464
69A0
1590
0100
ENDCHAR
STARTCHAR odieresis
ENCODING 246
SWIDTH 833 0
DWIDTH 7 0
BBX 7 8 0 -1
BITMAP
1440
1640
5950
6454
5464
69A0
1590
0100
ENDCHAR
STARTCHAR divide
ENCODING 247
SWIDTH 260 0
DWIDTH 2 0
BBX 2 5 0 0
BITMAP
50
00
00
50
50
ENDCHAR
STARTCHAR oslash
ENCODING 248
SWIDTH 832 0
DWIDTH 7 0
BBX 7 7 0 -1
BITMAP
1650
5590
6454
5464
69A0
2590
1500
ENDCHAR
STARTCHAR ugrave
ENCODING 249
SWIDTH 795 0
DWIDTH 6 0
BBX 6 10 0 -1
BITMAP
1000
1900
0000
5450
54A0
54A0
54A0
6A50
1540
0100
ENDCHAR
STARTCHAR uacute
ENCODING 250
SWIDTH 795 0
DWIDTH 6 0
BBX 6 10 0 -1
BITMAP
0040
0140
0000
5450
54A0
54A0
54A0
6A50
1540
0100
ENDCHAR
STARTCHAR ucircumflex
ENCODING 251
SWIDTH 795 0
DWIDTH 6 0
BBX 6 9 0 -1
BITMAP
0500
0540
5450
54A0
54A0
54A0
6A50
1540
0100
ENDCHAR
STARTCHAR udieresis
ENCODING 252
SWIDTH 795 0
DWIDTH 6 0
BBX 6 8 0 -1
BITMAP
1540
5450
54A0
54A0
54A0
6A50
1540
0100
ENDCHAR
STARTCHAR yacute
ENCODING 253
SWIDTH 733 0
DWIDTH 6 0
BBX 6 9 0 0
BITMAP
0040
0640
0000
5150
5550
1540
1940
0A00
0A00
ENDCHAR
STARTCHAR thorn
ENCODING 254
SWIDTH 833 0
DWIDTH 7 0
BBX 7 8 0 -1
BITMAP
1000
6400
6150
61A0
6164
6290
6140
5400
ENDCHAR
STARTCHAR ydieresis
ENCODING 255
SWIDTH 733 0
DWIDTH 6 0
BBX 6 7 0 0
BITMAP
1540
5550
5550
1540
1940
0A00
0A00
ENDCHAR
STARTCHAR Amacron
ENCODING 256
SWIDTH 936 0
DWIDTH 8 0
BBX 7 7 0 0
BITMAP
0540
0650
0990
1960
2554
5954
6564
ENDCHAR
STARTCHAR amacron
ENCODING 257
SWIDTH 832 0
DWIDTH 7 0
BBX 7 6 0 0
BITMAP
1540
5590
5554
5454
5A54
1954
ENDCHAR
STARTCHAR Abreve
ENCODING 258
SWIDTH 936 0
DWIDTH 8 0
BBX 7 8 0 0
BITMAP
0140
0540
0650
0990
1960
2554
5954
6564
ENDCHAR
STARTCHAR abreve
ENCODING 259
SWIDTH 832 0
DWIDTH 7 0
BBX 7 7 0 0
BITMAP
0500
1540
5590
5554
5454
5A54
1954
ENDCHAR
STARTCHAR Aogonek
ENCODING 260
SWIDTH 937 0
DWIDTH 8 0
BBX 8 9 0 -2
BITMAP
0140
0650
0990
19A0
2564
5958
6565
0500
0500
ENDCHAR
STARTCHAR aogonek
ENCODING 261
SWIDTH 832 0
DWIDTH 7 0
BBX 7 8 0 -2
BITMAP
1540
5590
5554
5454
5A54
1A54
0900
0500
ENDCHAR
STARTCHAR Cacute
ENCODING 262
SWIDTH 852 0
DWIDTH 7 0
BBX 7 10 0 -1
BITMAP
0010
0190
0650
2994
6550
5400
6400
6990
1950
0140
ENDCHAR
STARTCHAR cacute
ENCODING 263
SWIDTH 736 0
DWIDTH 6 0
BBX 6 10 0 -1
BITMAP
0040
0150
0000
1640
5990
6400
5400
6940
1590
0100
ENDCHAR
STARTCHAR Cdotaccent
ENCODING 266
SWIDTH 852 0
DWIDTH 7 0
BBX 7 10 0 -1
BITMAP
0100
0240
0550
2994
6550
5400
6400
6990
1950
0140
ENDCHAR
STARTCHAR cdotaccent
ENCODING 267
SWIDTH 736 0
DWIDTH 6 0
BBX 6 9 0 -1
BITMAP
0100
0600
1640
5990
6400
5400
6940
1590
0100
ENDCHAR
STARTCHAR Ccaron
ENCODING 268
SWIDTH 852 0
DWIDTH 7 0
BBX 7 10 0 -1
BITMAP
0540
0240
0550
2994
6550
5400
6400
6990
1950
0140
ENDCHAR
STARTCHAR ccaron
ENCODING 269
SWIDTH 736 0
DWIDTH 6 0
BBX 6 9 0 -1
BITMAP
0540
0600
1640
5990
6400
5400
6940
1590
0100
ENDCHAR
STARTCHAR Dcaron
ENCODING 270
SWIDTH 886 0
DWIDTH 7 0
BBX 7 9 0 0
BITMAP
0540
0240
5540
6A60
5564
5458
5454
6A54
6A90
ENDCHAR
STARTCHAR dcaron
ENCODING 271
SWIDTH 1084 0
DWIDTH 9 0
BBX 9 7 0 0
BITMAP
000100
554140
6A9140
559400
545400
6A5000
6A5000
ENDCHAR
STARTCHAR Dcroat
ENCODING 272
SWIDTH 888 0
DWIDTH 7 0
BBX 8 7 -1 0
BITMAP
1550
1AA8
1959
5856
1915
1A95
1AA4
ENDCHAR
STARTCHAR dcroat
ENCODING 273
SWIDTH 833 0
DWIDTH 7 0
BBX 7 6 0 0
BITMAP
5540
6A90
5594
5454
6A50
6A50
ENDCHAR
STARTCHAR Emacron
ENCODING 274
SWIDTH 706 0
DWIDTH 6 0
BBX 6 7 0 0
BITMAP
5540
5A90
5400
5900
5500
5540
5A90
ENDCHAR
STARTCHAR emacron
ENCODING 275
SWIDTH 666 0
DWIDTH 5 0
BBX 5 6 0 0
BITMAP
5540
5A80
5540
5A40
5540
5A80
ENDCHAR
STARTCHAR Ebreve
ENCODING 276
SWIDTH 706 0
DWIDTH 6 0
BBX 6 8 0 0
BITMAP
0500
5540
5A90
5400
5900
5500
5540
5A90
ENDCHAR
STARTCHAR ebreve
ENCODING 277
SWIDTH 666 0
DWIDTH 5 0
BBX 5 7 0 0
BITMAP
0500
5540
5A80
5540
5A40
5540
5A80
ENDCHAR
STARTCHAR Edotaccent
ENCODING 278
SWIDTH 706 0
DWIDTH 6 0
BBX 6 9 0 0
BITMAP
0400
0500
5540
5A90
5400
5900
5500
5540
5A90
ENDCHAR
STARTCHAR edotaccent
ENCODING 279
SWIDTH 666 0
DWIDTH 5 0
BBX 5 8 0 0
BITMAP
0400
0900
5540
5A80
5540
5A40
5540
5A80
ENDCHAR
STARTCHAR Eogonek
ENCODING 280
SWIDTH 706 0
DWIDTH 6 0
BBX 6 9 0 -2
BITMAP
5540
5A90
5400
5900
5500
5540
5A90
0080
0050
ENDCHAR
STARTCHAR eogonek
ENCODING 281
SWIDTH 666 0
DWIDTH 5 0
BBX 5 8 0 -2
BITMAP
5540
5A80
5540
5A40
5540
5A80
0140
0180
ENDCHAR
STARTCHAR Ecaron
ENCODING 282
SWIDTH 706 0
DWIDTH 6 0
BBX 6 9 0 0
BITMAP
0500
0900
5540
5A90
5400
5900
5500
5540
5A90
ENDCHAR
STARTCHAR ecaron
ENCODING 283
SWIDTH 666 0
DWIDTH 5 0
BBX 5 8 0 0
BITMAP
1500
0900
5540
5A80
5540
5A40
5540
5A80
ENDCHAR
STARTCHAR Gbreve
ENCODING 286
SWIDTH 908 0
DWIDTH 7 0
BBX 7 9 0 -1
BITMAP
0140
0550
2994
6550
5414
5428
55A8
1968
0140
ENDCHAR
STARTCHAR gbreve
ENCODING 287
SWIDTH 827 0
DWIDTH 7 0
BBX 7 8 0 -1
BITMAP
0500
1640
5990
6400
5454
6994
1594
0100
ENDCHAR
STARTCHAR Gdotaccent
ENCODING 288
SWIDTH 908 0
DWIDTH 7 0
BBX 7 10 0 -1
BITMAP
0100
0240
0550
2994
6550
5414
5428
55A8
1968
0140
ENDCHAR
STARTCHAR gdotaccent
ENCODING 289
SWIDTH 827 0
DWIDTH 7 0
BBX 7 9 0 -1
BITMAP
0100
0600
1640
5990
6400
5454
6994
1594
0100
ENDCHAR
STARTCHAR Gcommaaccent
ENCODING 290
SWIDTH 908 0
DWIDTH 7 0
BBX 7 10 0 -3
BITMAP
0550
2994
6550
5414
5428
55A8
1968
0140
0140
0140
ENDCHAR
STARTCHAR gcommaaccent
ENCODING 291
SWIDTH 827 0
DWIDTH 7 0
BBX 7 7 0 -1
BITMAP
1640
5990
6400
5454
6994
1594
0100
ENDCHAR
STARTCHAR Hcircumflex
ENCODING 292
SWIDTH 901 0
DWIDTH 7 0
BBX 7 9 0 0
BITMAP
0240
0540
5014
5418
5418
5A98
5558
5418
5418
ENDCHAR
STARTCHAR hcircumflex
ENCODING 293
SWIDTH 830 0
DWIDTH 7 0
BBX 7 8 0 0
BITMAP
0600
0540
5454
5454
5994
5994
5454
5454
ENDCHAR
STARTCHAR Hbar
ENCODING 294
SWIDTH 901 0
DWIDTH 7 0
BBX 7 7 0 0
BITMAP
1014
6518
6558
6A98
6558
6418
6418
ENDCHAR
STARTCHAR hbar
ENCODING 295
SWIDTH 830 0
DWIDTH 7 0
BBX 7 6 0 0
BITMAP
5050
6454
6994
6994
6454
6454
ENDCHAR
STARTCHAR Itilde
ENCODING 296
SWIDTH 338 0
DWIDTH 3 0
BBX 5 9 -1 0
BITMAP
6940
5500
1400
1500
1500
1500
1500
1500
1500
ENDCHAR
STARTCHAR itilde
ENCODING 297
SWIDTH 337 0
DWIDTH 3 0
BBX 5 8 -1 0
BITMAP
6940
5500
1500
1500
1500
1500
1500
1500
ENDCHAR
STARTCHAR Imacron
ENCODING 298
SWIDTH 338 0
DWIDTH 3 0
BBX 3 7 0 0
BITMAP
50
54
54
54
54
54
54
ENDCHAR
STARTCHAR imacron
ENCODING 299
SWIDTH 337 0
DWIDTH 3 0
BBX 3 6 0 0
BITMAP
54
54
54
54
54
54
ENDCHAR
STARTCHAR Ibreve
ENCODING 300
SWIDTH 338 0
DWIDTH 3 0
BBX 3 8 0 0
BITMAP
50
50
54
54
54
54
54
54
ENDCHAR
STARTCHAR ibreve
ENCODING 301
SWIDTH 337 0
DWIDTH 3 0
BBX 3 7 0 0
BITMAP
50
54
54
54
54
54
54
ENDCHAR
STARTCHAR Iogonek
ENCODING 302
SWIDTH 338 0
DWIDTH 3 0
BBX 3 9 0 -2
BITMAP
50
54
54
54
54
54
64
20
14
ENDCHAR
STARTCHAR iogonek
ENCODING 303
SWIDTH 337 0
DWIDTH 3 0
BBX 3 8 0 -2
BITMAP
54
54
54
54
54
64
20
24
ENDCHAR
STARTCHAR Idotaccent
ENCODING 304
SWIDTH 338 0
DWIDTH 3 0
BBX 3 9 0 0
BITMAP
10
60
50
54
54
54
54
54
54
ENDCHAR
STARTCHAR dotlessi
ENCODING 305
SWIDTH 337 0
DWIDTH 3 0
BBX 3 6 0 0
BITMAP
54
54
54
54
54
54
ENDCHAR
STARTCHAR IJ
ENCODING 306
SWIDTH 774 0
DWIDTH 6 0
BBX 6 8 0 -1
BITMAP
5050
5460
5460
5460
5460
5550
5540
0100
ENDCHAR
STARTCHAR ij
ENCODING 307
SWIDTH 729 0
DWIDTH 6 0
BBX 6 7 0 -1
BITMAP
5550
5590
5590
5590
5590
5540
0140
ENDCHAR
STARTCHAR Jcircumflex
ENCODING 308
SWIDTH 434 0
DWIDTH 3 0
BBX 3 10 0 -1
BITMAP
14
14
14
24
24
24
24
58
64
40
ENDCHAR
STARTCHAR jcircumflex
ENCODING 309
SWIDTH 393 0
DWIDTH 3 0
BBX 3 9 0 -1
BITMAP
24
54
14
58
58
58
54
64
50
ENDCHAR
STARTCHAR Kcommaaccent
ENCODING 310
SWIDTH 815 0
DWIDTH 7 0
BBX 6 10 0 -3
BITMAP
5050
5550
5650
5980
5580
5590
54A0
0100
0500
0200
ENDCHAR
STARTCHAR kcommaaccent
ENCODING 311
SWIDTH 801 0
DWIDTH 6 0
BBX 6 9 0 -3
BITMAP
5450
5590
5180
5180
5550
5560
0100
0600
0600
ENDCHAR
STARTCHAR kgreenlandic
ENCODING 312
SWIDTH 801 0
DWIDTH 6 0
BBX 6 6 0 0
BITMAP
5450
5590
5180
5180
5550
5560
ENDCHAR
STARTCHAR Lacute
ENCODING 313
SWIDTH 604 0
DWIDTH 5 0
BBX 5 9 0 0
BITMAP
0040
0540
5400
5400
5400
5400
5400
5500
5A40
ENDCHAR
STARTCHAR lacute
ENCODING 314
SWIDTH 583 0
DWIDTH 5 0
BBX 5 9 0 0
BITMAP
0500
1500
0000
5400
5400
5400
5400
5500
5A40
ENDCHAR
STARTCHAR Lcommaaccent
ENCODING 315
SWIDTH 604 0
DWIDTH 5 0
BBX 5 10 0 -3
BITMAP
5000
5400
5400
5400
5400
5500
5A40
0400
0500
0800
ENDCHAR
STARTCHAR lcommaaccent
ENCODING 316
SWIDTH 583 0
DWIDTH 5 0
BBX 5 9 0 -3
BITMAP
5400
5400
5400
5400
5500
5A40
0400
1400
0800
ENDCHAR
STARTCHAR Lcaron
ENCODING 317
SWIDTH 856 0
DWIDTH 7 0
BBX 7 7 0 0
BITMAP
5010
5414
5414
5400
5400
5500
5A40
ENDCHAR
STARTCHAR lcaron
ENCODING 318
SWIDTH 584 0
DWIDTH 5 0
BBX 5 7 0 0
BITMAP
0100
5540
5540
5400
5400
5500
5A40
ENDCHAR
STARTCHAR Ldot
ENCODING 319
SWIDTH 604 0
DWIDTH 5 0
BBX 5 7 0 0
BITMAP
5000
5400
5500
5600
5400
5500
5A40
ENDCHAR
STARTCHAR ldot
ENCODING 320
SWIDTH 582 0
DWIDTH 5 0
BBX 5 6 0 0
BITMAP
5400
5500
5600
5400
5500
5A40
ENDCHAR
STARTCHAR Lslash
ENCODING 321
SWIDTH 604 0
DWIDTH 5 0
BBX 6 7 -1 0
BITMAP
0400
1900
1840
5940
1900
1940
1A90
ENDCHAR
STARTCHAR lslash
ENCODING 322
SWIDTH 581 0
DWIDTH 5 0
BBX 5 6 0 0
BITMAP
5400
6100
6400
6400
6500
6A40
ENDCHAR
STARTCHAR Nacute
ENCODING 323
SWIDTH 877 0
DWIDTH 7 0
BBX 7 9 0 0
BITMAP
0010
0150
5414
6554
6554
5A94
5594
55A4
54A4
ENDCHAR
STARTCHAR nacute
ENCODING 324
SWIDTH 787 0
DWIDTH 6 0
BBX 6 9 0 0
BITMAP
0040
0140
0000
5450
6560
6660
5660
55A0
51A0
ENDCHAR
STARTCHAR Ncommaaccent
ENCODING 325
SWIDTH 877 0
DWIDTH 7 0
BBX 7 10 0 -3
BITMAP
5414
6554
6554
5A94
5594
55A4
54A4
0100
0140
0200
ENDCHAR
STARTCHAR ncommaaccent
ENCODING 326
SWIDTH 787 0
DWIDTH 6 0
BBX 6 9 0 -3
BITMAP
5450
6560
6660
5660
55A0
51A0
0100
0600
0500
ENDCHAR
STARTCHAR Ncaron
ENCODING 327
SWIDTH 877 0
DWIDTH 7 0
BBX 7 9 0 0
BITMAP
0540
0200
5414
6554
6554
5A94
5594
55A4
54A4
ENDCHAR
STARTCHAR ncaron
ENCODING 328
SWIDTH 787 0
DWIDTH 6 0
BBX 6 8 0 0
BITMAP
0500
0500
5450
6560
6660
5660
55A0
51A0
ENDCHAR
STARTCHAR Eng
ENCODING 330
SWIDTH 874 0
DWIDTH 7 0
BBX 7 10 0 -3
BITMAP
5410
6564
6664
56A4
66A4
65A4
6464
0064
0190
0040
ENDCHAR
STARTCHAR eng
ENCODING 331
SWIDTH 691 0
DWIDTH 6 0
BBX 5 8 0 -2
BITMAP
5440
6640
6640
5640
5640
5140
0140
0140
ENDCHAR
STARTCHAR Omacron
ENCODING 332
SWIDTH 933 0
DWIDTH 7 0
BBX 8 8 0 -1
BITMAP
0550
29A4
6568
5415
6424
6994
1990
0140
ENDCHAR
STARTCHAR omacron
ENCODING 333
SWIDTH 833 0
DWIDTH 7 0
BBX 7 7 0 -1
BITMAP
1640
5950
6454
5464
69A0
1590
0100
ENDCHAR
STARTCHAR Obreve
ENCODING 334
SWIDTH 933 0
DWIDTH 7 0
BBX 8 9 0 -1
BITMAP
0140
0550
29A4
6568
5415
6424
6994
1990
0140
ENDCHAR
STARTCHAR obreve
ENCODING 335
SWIDTH 833 0
DWIDTH 7 0
BBX 7 8 0 -1
BITMAP
0500
1640
5950
6454
5464
69A0
1590
0100
ENDCHAR
STARTCHAR Ohungarumlaut
ENCODING 336
SWIDTH 933 0
DWIDTH 7 0
BBX 8 10 0 -1
BITMAP
0104
0554
0550
29A4
6568
5415
6424
6994
1990
0140
ENDCHAR
STARTCHAR ohungarumlaut
ENCODING 337
SWIDTH 833 0
DWIDTH 7 0
BBX 7 10 0 -1
BITMAP
0104
1964
0000
1640
5950
6454
5464
69A0
1590
0100
ENDCHAR
STARTCHAR OE
ENCODING 338
SWIDTH 1317 0
DWIDTH 11 0
BBX 10 8 0 -1
BITMAP
055150
2996A0
655500
541640
641540
699550
1956A0
010000
ENDCHAR
STARTCHAR oe
ENCODING 339
SWIDTH 1174 0
DWIDTH 9 0
BBX 9 7 0 -1
BITMAP
165540
502940
442540
446A80
506540
156A80
010000
ENDCHAR
STARTCHAR Racute
ENCODING 340
SWIDTH 843 0
DWIDTH 7 0
BBX 7 9 0 0
BITMAP
0100
0540
5540
6A50
5564
5A94
5960
5590
54A0
ENDCHAR
STARTCHAR Rcommaaccent
ENCODING 342
SWIDTH 843 0
DWIDTH 7 0
BBX 7 10 0 -3
BITMAP
5540
6A50
5564
5A94
5960
5590
54A0
0100
0600
0500
ENDCHAR
STARTCHAR rcommaaccent
ENCODING 343
SWIDTH 831 0
DWIDTH 7 0
BBX 7 9 0 -3
BITMAP
5540
6A90
5A94
5990
5A90
5590
0100
0600
0500
ENDCHAR
STARTCHAR Rcaron
ENCODING 344
SWIDTH 843 0
DWIDTH 7 0
BBX 7 9 0 0
BITMAP
1500
1800
5540
6A50
5564
5A94
5960
5590
54A0
ENDCHAR
STARTCHAR rcaron
ENCODING 345
SWIDTH 831 0
DWIDTH 7 0
BBX 7 8 0 0
BITMAP
0540
0600
5540
6A90
5A94
5990
5A90
5590
ENDCHAR
STARTCHAR Sacute
ENCODING 346
SWIDTH 682 0
DWIDTH 5 0
BBX 5 10 0 -1
BITMAP
0040
0640
1940
6540
5900
6540
1680
1640
6540
0400
ENDCHAR
STARTCHAR sacute
ENCODING 347
SWIDTH 683 0
DWIDTH 5 0
BBX 5 9 0 0
BITMAP
0040
0640
0000
1540
6540
5500
1A80
1540
6640
ENDCHAR
STARTCHAR Scircumflex
ENCODING 348
SWIDTH 682 0
DWIDTH 5 0
BBX 5 10 0 -1
BITMAP
0900
1500
1540
6540
5900
6540
1680
1640
6540
0400
ENDCHAR
STARTCHAR scircumflex
ENCODING 349
SWIDTH 683 0
DWIDTH 5 0
BBX 5 8 0 0
BITMAP
0900
1500
1540
6540
5500
1A80
1540
6640
ENDCHAR
STARTCHAR Scedilla
ENCODING 350
SWIDTH 682 0
DWIDTH 5 0
BBX 5 10 0 -3
BITMAP
1540
6540
5900
6540
1680
1640
6540
0900
1400
1800
ENDCHAR
STARTCHAR scedilla
ENCODING 351
SWIDTH 683 0
DWIDTH 5 0
BBX 5 9 0 -3
BITMAP
1540
6540
5500
1A80
1540
6640
0400
1400
1800
ENDCHAR
STARTCHAR Scaron
ENCODING 352
SWIDTH 682 0
DWIDTH 5 0
BBX 5 10 0 -1
BITMAP
1500
0900
1540
6540
5900
6540
1680
1640
6540
0400
ENDCHAR
STARTCHAR scaron
ENCODING 353
SWIDTH 683 0
DWIDTH 5 0
BBX 5 8 0 0
BITMAP
1500
0900
1540
6540
5500
1A80
1540
6640
ENDCHAR
STARTCHAR Tcommaaccent
ENCODING 354
SWIDTH 591 0
DWIDTH 5 0
BBX 5 9 0 -2
BITMAP
5500
6A40
1500
1500
1500
1500
2900
2400
2400
ENDCHAR
STARTCHAR tcommaaccent
ENCODING 355
SWIDTH 588 0
DWIDTH 5 0
BBX 5 8 0 -2
BITMAP
5500
6A40
1500
1500
1500
2900
2400
2400
ENDCHAR
STARTCHAR Tcaron
ENCODING 356
SWIDTH 591 0
DWIDTH 5 0
BBX 5 9 0 0
BITMAP
1500
1800
5500
6A40
1500
1500
1500
1500
1500
ENDCHAR
STARTCHAR tcaron
ENCODING 357
SWIDTH 842 0
DWIDTH 7 0
BBX 7 7 0 0
BITMAP
0010
5514
6A54
1500
1500
1500
1500
ENDCHAR
STARTCHAR Tbar
ENCODING 358
SWIDTH 591 0
DWIDTH 5 0
BBX 5 7 0 0
BITMAP
5500
6A40
1500
5440
5500
1500
1500
ENDCHAR
STARTCHAR tbar
ENCODING 359
SWIDTH 588 0
DWIDTH 5 0
BBX 5 6 0 0
BITMAP
5500
6A40
1500
5440
5500
1500
ENDCHAR
STARTCHAR Utilde
ENCODING 360
SWIDTH 905 0
DWIDTH 7 0
BBX 7 10 0 -1
BITMAP
1A50
1150
5014
5418
5418
5418
6458
69A4
1950
0100
ENDCHAR
STARTCHAR utilde
ENCODING 361
SWIDTH 795 0
DWIDTH 6 0
BBX 6 9 0 -1
BITMAP
1A50
1540
5450
54A0
54A0
54A0
6A50
1540
0100
ENDCHAR
STARTCHAR Umacron
ENCODING 362
SWIDTH 905 0
DWIDTH 7 0
BBX 7 8 0 -1
BITMAP
5014
5418
5418
5418
6458
69A4
1950
0100
ENDCHAR
STARTCHAR umacron
ENCODING 363
SWIDTH 795 0
DWIDTH 6 0
BBX 6 7 0 -1
BITMAP
5450
54A0
54A0
54A0
6A50
1540
0100
ENDCHAR
STARTCHAR Ubreve
ENCODING 364
SWIDTH 905 0
DWIDTH 7 0
BBX 7 9 0 -1
BITMAP
0140
5014
5418
5418
5418
6458
69A4
1950
0100
ENDCHAR
STARTCHAR ubreve
ENCODING 365
SWIDTH 795 0
DWIDTH 6 0
BBX 6 8 0 -1
BITMAP
0500
5450
54A0
54A0
54A0
6A50
1540
0100
ENDCHAR
STARTCHAR Uring
ENCODING 366
SWIDTH 905 0
DWIDTH 7 0
BBX 7 11 0 -1
BITMAP
0100
0540
0140
5014
5418
5418
5418
6458
69A4
1950
0100
ENDCHAR
STARTCHAR uring
ENCODING 367
SWIDTH 795 0
DWIDTH 6 0
BBX 6 9 0 -1
BITMAP
0500
0500
5450
54A0
54A0
54A0
6A50
1540
0100
ENDCHAR
STARTCHAR Uhungarumlaut
ENCODING 368
SWIDTH 905 0
DWIDTH 7 0
BBX 7 10 0 -1
BITMAP
0104
0554
5414
5418
5418
5418
6458
69A4
1950
0100
ENDCHAR
STARTCHAR uhungarumlaut
ENCODING 369
SWIDTH 795 0
DWIDTH 6 0
BBX 7 10 0 -1
BITMAP
0104
1964
0000
5450
54A0
54A0
54A0
6A50
1540
0100
ENDCHAR
STARTCHAR Uogonek
ENCODING 370
SWIDTH 905 0
DWIDTH 7 0
BBX 7 9 0 -2
BITMAP
5014
5418
5418
5418
6458
69A4
1A50
0600
0600
ENDCHAR
STARTCHAR uogonek
ENCODING 371
SWIDTH 794 0
DWIDTH 6 0
BBX 6 8 0 -2
BITMAP
5450
54A0
54A0
54A0
6A50
1A40
0900
0500
ENDCHAR
STARTCHAR Ycircumflex
ENCODING 374
SWIDTH 789 0
DWIDTH 6 0
BBX 6 9 0 0
BITMAP
0500
0540
5050
6550
2550
1940
0940
0900
0900
ENDCHAR
STARTCHAR ycircumflex
ENCODING 375
SWIDTH 733 0
DWIDTH 6 0
BBX 6 8 0 0
BITMAP
0500
0600
5150
5550
1540
1940
0A00
0A00
ENDCHAR
STARTCHAR Ydieresis
ENCODING 376
SWIDTH 789 0
DWIDTH 6 0
BBX 6 8 0 0
BITMAP
1540
5050
6550
2550
1940
0940
0900
0900
ENDCHAR
STARTCHAR Zacute
ENCODING 377
SWIDTH 854 0
DWIDTH 7 0
BBX 7 9 0 0
BITMAP
0010
0150
5554
6A54
5554
0550
5540
65A4
6AA4
ENDCHAR
STARTCHAR zacute
ENCODING 378
SWIDTH 714 0
DWIDTH 6 0
BBX 6 9 0 0
BITMAP
0040
0640
0000
5540
6940
0940
1500
5540
6690
ENDCHAR
STARTCHAR Zdotaccent
ENCODING 379
SWIDTH 854 0
DWIDTH 7 0
BBX 7 9 0 0
BITMAP
0100
0200
5554
6A54
5554
0550
5540
65A4
6AA4
ENDCHAR
STARTCHAR zdotaccent
ENCODING 380
SWIDTH 714 0
DWIDTH 6 0
BBX 6 8 0 0
BITMAP
0500
0500
5540
6940
0940
1500
5540
6690
ENDCHAR
STARTCHAR Zcaron
ENCODING 381
SWIDTH 854 0
DWIDTH 7 0
BBX 7 9 0 0
BITMAP
0540
0600
5554
6A54
5554
0550
5540
65A4
6AA4
ENDCHAR
STARTCHAR zcaron
ENCODING 382
SWIDTH 714 0
DWIDTH 6 0
BBX 6 8 0 0
BITMAP
0600
0900
5540
6940
0940
1500
5540
6690
ENDCHAR
STARTCHAR florin
ENCODING 402
SWIDTH 388 0
DWIDTH 3 0
BBX 3 8 0 -1
BITMAP
14
24
54
54
14
14
60
50
ENDCHAR
STARTCHAR uni01C4
ENCODING 452
SWIDTH 1740 0
DWIDTH 14 0
BBX 14 9 0 0
BITMAP
00001500
00000800
55405550
6A61A950
55645550
54581540
54555500
6A559690
6A91AA90
ENDCHAR
STARTCHAR uni01C5
ENCODING 453
SWIDTH 1601 0
DWIDTH 13 0
BBX 13 8 0 0
BITMAP
00001800
55401400
6A615500
5565A500
54581500
54545800
6A549500
6A91AA40
ENDCHAR
STARTCHAR Scommaaccent
ENCODING 536
SWIDTH 682 0
DWIDTH 5 0
BBX 5 10 0 -3
BITMAP
1540
6540
5900
6540
1680
1640
6540
0500
0500
0500
ENDCHAR
STARTCHAR scommaaccent
ENCODING 537
SWIDTH 683 0
DWIDTH 5 0
BBX 5 9 0 -3
BITMAP
1540
6540
5500
1A80
1540
6640
0400
0500
0500
ENDCHAR
STARTCHAR uni021A
ENCODING 538
SWIDTH 591 0
DWIDTH 5 0
BBX 5 10 0 -3
BITMAP
5500
6A40
1500
1500
1500
1500
1500
0400
1800
0800
ENDCHAR
STARTCHAR uni021B
ENCODING 539
SWIDTH 588 0
DWIDTH 5 0
BBX 5 9 0 -3
BITMAP
5500
6A40
1500
1500
1500
1500
0400
1800
0800
ENDCHAR
STARTCHAR uni0237
ENCODING 567
SWIDTH 393 0
DWIDTH 3 0
BBX 3 7 0 -1
BITMAP
14
58
58
58
54
64
50
ENDCHAR
STARTCHAR circumflex
ENCODING 710
SWIDTH 376 0
DWIDTH 3 0
BBX 3 2 0 6
BITMAP
20
54
ENDCHAR
STARTCHAR caron
ENCODING 711
SWIDTH 362 0
DWIDTH 3 0
BBX 3 2 0 6
BITMAP
54
60
ENDCHAR
STARTCHAR breve
ENCODING 728
SWIDTH 360 0
DWIDTH 3 0
BBX 2 1 0 6
BITMAP
50
ENDCHAR
STARTCHAR dotaccent
ENCODING 729
SWIDTH 255 0
DWIDTH 2 0
BBX 2 2 0 5
BITMAP
50
50
ENDCHAR
STARTCHAR ring
ENCODING 730
SWIDTH 330 0
DWIDTH 3 0
BBX 3 3 0 6
BITMAP
10
54
50
ENDCHAR
STARTCHAR ogonek
ENCODING 731
SWIDTH 250 0
DWIDTH 2 0
BBX 2 3 0 -2
BITMAP
10
50
50
ENDCHAR
STARTCHAR tilde
ENCODING 732
SWIDTH 665 0
DWIDTH 5 0
BBX 5 2 0 4
BITMAP
6940
5540
ENDCHAR
STARTCHAR hungarumlaut
ENCODING 733
SWIDTH 837 0
DWIDTH 7 0
BBX 6 2 0 6
BITMAP
0410
6590
ENDCHAR
STARTCHAR uni0307
ENCODING 775
SWIDTH 260 0
DWIDTH 2 0
BBX 2 2 0 3
BITMAP
50
50
ENDCHAR
STARTCHAR uni030F
ENCODING 783
SWIDTH 554 0
DWIDTH 4 0
BBX 4 3 0 6
BITMAP
44
55
22
ENDCHAR
STARTCHAR uni0311
ENCODING 785
SWIDTH 375 0
DWIDTH 3 0
BBX 3 2 0 6
BITMAP
10
54
ENDCHAR
STARTCHAR uni0326
ENCODING 806
SWIDTH 274 0
DWIDTH 2 0
BBX 2 3 0 -3
BITMAP
10
60
50
ENDCHAR
STARTCHAR Omega
ENCODING 937
SWIDTH 92 0
DWIDTH 1 0
BBX 1 1 0 0
BITMAP
00
ENDCHAR
STARTCHAR uni00B5.dup2
ENCODING 956
SWIDTH 802 0
DWIDTH 6 0
BBX 6 7 0 -1
BITMAP
5450
6490
6490
6490
6A50
6550
5500
ENDCHAR
STARTCHAR pi
ENCODING 960
SWIDTH 92 0
DWIDTH 1 0
BBX 1 1 0 0
BITMAP
00
ENDCHAR
STARTCHAR endash
ENCODING 8211
SWIDTH 473 0
DWIDTH 4 0
BBX 4 2 0 2
BITMAP
69
54
ENDCHAR
STARTCHAR emdash
ENCODING 8212
SWIDTH 615 0
DWIDTH 5 0
BBX 5 2 0 2
BITMAP
6A40
5500
ENDCHAR
STARTCHAR quoteleft
ENCODING 8216
SWIDTH 254 0
DWIDTH 2 0
BBX 2 3 0 4
BITMAP
10
50
50
ENDCHAR
STARTCHAR quoteright
ENCODING 8217
SWIDTH 251 0
DWIDTH 2 0
BBX 2 3 0 4
BITMAP
50
50
50
ENDCHAR
STARTCHAR quotesinglbase
ENCODING 8218
SWIDTH 252 0
DWIDTH 2 0
BBX 2 3 0 -1
BITMAP
10
50
50
ENDCHAR
STARTCHAR quotedblleft
ENCODING 8220
SWIDTH 535 0
DWIDTH 4 0
BBX 4 3 0 4
BITMAP
11
55
56
ENDCHAR
STARTCHAR quotedblright
ENCODING 8221
SWIDTH 532 0
DWIDTH 4 0
BBX 4 3 0 4
BITMAP
51
56
55
ENDCHAR
STARTCHAR quotedblbase
ENCODING 8222
SWIDTH 533 0
DWIDTH 4 0
BBX 4 3 0 -1
BITMAP
11
56
55
ENDCHAR
STARTCHAR dagger
ENCODING 8224
SWIDTH 636 0
DWIDTH 5 0
BBX 5 7 0 0
BITMAP
0400
1900
6940
5940
1900
1900
1900
ENDCHAR
STARTCHAR daggerdbl
ENCODING 8225
SWIDTH 648 0
DWIDTH 5 0
BBX 5 7 0 0
BITMAP
0400
1940
6A40
1900
5940
6A40
1900
ENDCHAR
STARTCHAR bullet
ENCODING 8226
SWIDTH 501 0
DWIDTH 4 0
BBX 4 4 0 1
BITMAP
14
55
55
18
ENDCHAR
STARTCHAR ellipsis
ENCODING 8230
SWIDTH 676 0
DWIDTH 5 0
BBX 5 2 0 0
BITMAP
5540
5980
ENDCHAR
STARTCHAR perthousand
ENCODING 8240
SWIDTH 447 0
DWIDTH 4 0
BBX 4 8 0 -1
BITMAP
04
15
18
14
24
54
60
50
ENDCHAR
STARTCHAR guilsinglleft
ENCODING 8249
SWIDTH 465 0
DWIDTH 4 0
BBX 4 4 0 1
BITMAP
05
58
54
15
ENDCHAR
STARTCHAR guilsinglright
ENCODING 8250
SWIDTH 465 0
DWIDTH 4 0
BBX 4 4 0 1
BITMAP
50
69
55
54
ENDCHAR
STARTCHAR fraction
ENCODING 8260
SWIDTH 447 0
DWIDTH 4 0
BBX 4 8 0 -1
BITMAP
04
15
18
14
24
54
60
50
ENDCHAR
STARTCHAR uni2074
ENCODING 8308
SWIDTH 528 0
DWIDTH 4 0
BBX 4 6 0 1
BITMAP
04
24
54
55
6A
05
ENDCHAR
STARTCHAR Euro
ENCODING 8364
SWIDTH 781 0
DWIDTH 6 0
BBX 6 8 0 -1
BITMAP
0550
1A50
2940
5540
5940
1A50
0550
0040
ENDCHAR
STARTCHAR trademark
ENCODING 8482
SWIDTH 1503 0
DWIDTH 12 0
BBX 12 6 0 1
BITMAP
551405
6A6415
182925
182555
182695
001040
ENDCHAR
STARTCHAR partialdiff
ENCODING 8706
SWIDTH 108 0
DWIDTH 1 0
BBX 1 1 0 0
BITMAP
00
ENDCHAR
STARTCHAR uni2206
ENCODING 8710
SWIDTH 108 0
DWIDTH 1 0
BBX 1 1 0 0
BITMAP
00
ENDCHAR
STARTCHAR product
ENCODING 8719
SWIDTH 521 0
DWIDTH 4 0
BBX 4 6 0 0
BITMAP
14
25
55
66
55
28
ENDCHAR
STARTCHAR summation
ENCODING 8721
SWIDTH 108 0
DWIDTH 1 0
BBX 1 1 0 0
BITMAP
00
ENDCHAR
STARTCHAR minus
ENCODING 8722
SWIDTH 555 0
DWIDTH 4 0
BBX 4 3 0 2
BITMAP
15
55
15
ENDCHAR
STARTCHAR radical
ENCODING 8730
SWIDTH 108 0
DWIDTH 1 0
BBX 1 1 0 0
BITMAP
00
ENDCHAR
STARTCHAR infinity
ENCODING 8734
SWIDTH 108 0
DWIDTH 1 0
BBX 1 1 0 0
BITMAP
00
ENDCHAR
STARTCHAR integral
ENCODING 8747
SWIDTH 362 0
DWIDTH 3 0
BBX 3 8 0 -1
BITMAP
14
24
50
50
50
50
60
50
ENDCHAR
STARTCHAR approxequal
ENCODING 8776
SWIDTH 665 0
DWIDTH 5 0
BBX 5 4 0 2
BITMAP
6940
5540
6940
5540
ENDCHAR
STARTCHAR notequal
ENCODING 8800
SWIDTH 473 0
DWIDTH 4 0
BBX 4 8 0 -1
BITMAP
04
15
6D
68
68
B9
60
50
ENDCHAR
STARTCHAR lessequal
ENCODING 8804
SWIDTH 108 0
DWIDTH 1 0
BBX 1 1 0 0
BITMAP
00
ENDCHAR
STARTCHAR greaterequal
ENCODING 8805
SWIDTH 108 0
DWIDTH 1 0
BBX 1 1 0 0
BITMAP
00
ENDCHAR
STARTCHAR lozenge
ENCODING 9674
SWIDTH 521 0
DWIDTH 4 0
BBX 4 6 0 0
BITMAP
14
25
55
66
55
28
ENDCHAR
STARTCHAR uniF8FF
ENCODING 63743
SWIDTH 108 0
DWIDTH 1 0
BBX 1 1 0 0
BITMAP
00
ENDCHAR
STARTCHAR uniFB01
ENCODING 64257
SWIDTH 962 0
DWIDTH 8 0
BBX 8 6 0 0
BITMAP
5555
5A55
5515
5A55
5415
5415
ENDCHAR
STARTCHAR uniFB02
ENCODING 64258
SWIDTH 1208 0
DWIDTH 10 0
BBX 10 6 0 0
BITMAP
555500
5A5500
551500
5A5500
541540
541690
ENDCHAR
STARTCHAR .notdef
ENCODING -1
SWIDTH 108 0
DWIDTH 1 0
BBX 1 1 0 0
BITMAP
00
ENDCHAR
ENDFONT
